#N canvas 92 23 894 763 10;
#X msg -6918 -1 close;
#X msg -6829 34 909;
#X text -6799 32 start message to push arduino for sending;
#X msg -7104 0 open 4;
#X msg -7249 36 devices;
#X obj -6981 111 match 13 10;
#X obj -6981 132 t b;
#X obj -6981 180 zl ecils 2;
#X obj -6981 155 zl group 128;
#X obj -6981 88 t a a;
#X obj -6981 228 route float;
#X obj -6981 202 bytes2any 128 0;
#X obj -6981 53 comport \$1 57600;
#X floatatom -6907 228 5 0 0 0 - - -;
#N canvas 0 22 450 278 (subpatch) 0;
#X array buffer 63250 float 2;
#X coords 0 1 63250 -1 200 140 1 0 0;
#X restore -6619 97 graph;
#X obj -6990 405 tabread~ buffer;
#X obj -6617 299 soundfiler;
#X floatatom -6617 321 5 0 0 0 - - -;
#X msg -6617 280 read drump04.wav buffer;
#X obj -6990 382 line~;
#X obj -6991 337 onebang 1;
#X obj -6991 312 sel 1;
#X obj -6939 312 sel 1;
#X msg -6991 359 0 \, 63250 1500;
#N canvas 597 23 774 730 sound 1;
#N canvas 0 22 450 278 (subpatch) 0;
#X array channelL 63250 float 2;
#X coords 0 1 63250 -1 200 140 1 0 0;
#X restore 460 173 graph;
#N canvas 0 22 450 278 (subpatch) 0;
#X array channelR 63250 float 2;
#X coords 0 1 63250 -1 200 140 1 0 0;
#X restore 462 340 graph;
#X obj 40 326 expr 44100 / $f1;
#X obj 40 350 phasor~;
#X floatatom 118 344 10 0 0 0 - - -;
#X obj 40 380 *~;
#X obj 40 411 tabread~ channelL;
#X obj 95 368 r sampleSize;
#X obj 153 412 tabread~ channelR;
#X obj 270 414 snapshot~;
#X obj 270 391 metro 50;
#X floatatom 277 435 10 0 0 0 - - -;
#X obj 271 455 /;
#X floatatom 271 477 10 0 0 0 - - -;
#X obj 302 455 r sampleSize;
#X obj 264 498 hsl 195 15 0 1 0 0 empty empty empty -2 -8 0 10 -262144
-1 -1 18711 1;
#X obj 310 314 hsl 128 15 0 2 0 0 empty empty empty -2 -8 0 10 -262144
-1 -1 0 1;
#X msg 308 293 0.697233;
#X floatatom 307 335 5 0 0 0 - - -;
#X obj 186 343 s normalSpeed;
#X obj 323 255 r normalSpeed;
#X msg 323 274 set \$1;
#X obj 353 208 r normalSpeed;
#X obj 307 239 * \$1;
#X msg 176 368 0;
#X obj 307 110 inlet;
#X obj 40 566 outlet~;
#X obj 153 563 outlet~;
#X obj 353 231 * 1.3;
#X obj 351 350 sel 0;
#X msg 392 351 0;
#X obj 39 275 soundfiler;
#X floatatom 39 297 10 0 0 0 - - -;
#X obj 104 297 s sampleSize;
#X msg 39 256 read -resize singing3.wav channelL channelR;
#X obj 40 235 loadbang;
#X obj 271 351 loadbang;
#X obj 270 372 tgl 15 0 empty empty empty 17 7 0 10 -262144 -1 -1 0
1;
#X connect 2 0 3 0;
#X connect 2 0 4 0;
#X connect 2 0 19 0;
#X connect 3 0 5 0;
#X connect 5 0 6 0;
#X connect 5 0 8 0;
#X connect 5 0 9 0;
#X connect 6 0 26 0;
#X connect 7 0 5 1;
#X connect 8 0 27 0;
#X connect 9 0 11 0;
#X connect 9 0 12 0;
#X connect 10 0 9 0;
#X connect 12 0 13 0;
#X connect 12 0 15 0;
#X connect 14 0 12 1;
#X connect 16 0 18 0;
#X connect 17 0 16 0;
#X connect 18 0 3 0;
#X connect 18 0 29 0;
#X connect 20 0 21 0;
#X connect 21 0 17 0;
#X connect 22 0 28 0;
#X connect 23 0 16 0;
#X connect 24 0 3 1;
#X connect 25 0 23 0;
#X connect 28 0 23 1;
#X connect 29 0 30 0;
#X connect 30 0 3 1;
#X connect 31 0 32 0;
#X connect 31 0 33 0;
#X connect 31 0 2 0;
#X connect 34 0 31 0;
#X connect 35 0 34 0;
#X connect 36 0 37 0;
#X connect 37 0 10 0;
#X restore -7163 425 pd sound;
#X floatatom -7162 392 5 0 0 0 - - -;
#X obj -7162 369 min 1;
#X obj -7155 527 dac~;
#X obj -7162 347 max 0;
#X obj -7162 326 expr_scale 0 1023 0 1;
#X floatatom -7132 295 5 0 0 0 - - -;
#X floatatom -7093 295 5 0 0 0 - - -;
#X text -7151 277 minimum;
#X text -7093 275 maximum;
#X text -7235 262 adjust the incoming sensor range;
#X msg -7055 0 open 5;
#X msg -7154 1 open 3;
#X msg -7201 1 open 2;
#X msg -7251 2 open 1;
#X msg -7006 0 open 6;
#X text -7249 58 check which port your arduino is connected;
#X text -6826 17;
#X obj -6617 251 loadbang;
#X obj -7070 180 tgl 15 0 empty empty empty 17 7 0 10 -262144 -1 -1
0 1;
#X obj -7070 200 + 1;
#X obj -6993 250 gate 2;
#X obj -6991 287 > 500;
#X obj -6939 288 < 500;
#X floatatom -6895 272 5 0 0 0 - - -;
#X obj -6942 73 hsl 128 15 0 1023 0 0 empty empty empty -2 -8 0 10
-262144 -1 -1 0 1;
#X floatatom -6945 91 5 0 0 0 - - -;
#X obj -7154 501 *~ 0.8;
#X obj -7107 502 hsl 128 15 0 1 0 0 empty empty empty -2 -8 0 10 -262144
-1 -1 0 1;
#X floatatom -7111 521 5 0 0 0 - - -;
#X text -6857 273 threshold value;
#X text -7094 484 volume;
#X text -7239 166 toggle between lalala mode or drum trigger;
#X obj -6925 531 dac~;
#X obj -6924 505 *~ 0.8;
#X obj -6877 506 hsl 128 15 0 1 0 0 empty empty empty -2 -8 0 10 -262144
-1 -1 0 1;
#X floatatom -6881 525 5 0 0 0 - - -;
#X text -6864 488 volume;
#X obj -7100 427 t 0;
#X obj -7071 427 t 0.8;
#X connect 0 0 12 0;
#X connect 1 0 12 0;
#X connect 3 0 12 0;
#X connect 4 0 12 0;
#X connect 5 0 6 0;
#X connect 6 0 8 0;
#X connect 7 0 11 0;
#X connect 8 0 7 0;
#X connect 9 0 5 0;
#X connect 9 1 8 0;
#X connect 10 0 13 0;
#X connect 10 0 45 1;
#X connect 11 0 10 0;
#X connect 12 0 9 0;
#X connect 15 0 58 0;
#X connect 16 0 17 0;
#X connect 18 0 16 0;
#X connect 19 0 15 0;
#X connect 20 0 23 0;
#X connect 21 0 20 0;
#X connect 22 0 20 1;
#X connect 23 0 19 0;
#X connect 24 0 51 0;
#X connect 24 1 51 0;
#X connect 26 0 25 0;
#X connect 26 0 24 0;
#X connect 28 0 26 0;
#X connect 29 0 28 0;
#X connect 30 0 29 1;
#X connect 31 0 29 2;
#X connect 35 0 12 0;
#X connect 36 0 12 0;
#X connect 37 0 12 0;
#X connect 38 0 12 0;
#X connect 39 0 12 0;
#X connect 42 0 18 0;
#X connect 43 0 44 0;
#X connect 44 0 45 0;
#X connect 45 1 29 0;
#X connect 46 0 21 0;
#X connect 47 0 22 0;
#X connect 48 0 46 1;
#X connect 48 0 47 1;
#X connect 49 0 9 0;
#X connect 49 0 50 0;
#X connect 51 0 27 0;
#X connect 51 0 27 1;
#X connect 52 0 51 1;
#X connect 52 0 53 0;
#X connect 58 0 57 0;
#X connect 58 0 57 1;
#X connect 59 0 58 1;
#X connect 59 0 60 0;
#X connect 62 0 52 0;
#X connect 63 0 52 0;
